<svg xmlns="http://www.w3.org/2000/svg" viewBox="0 0 360 72" width="360" height="72">
  <defs>
    <linearGradient id="full-wave-grad" x1="0%" y1="0%" x2="100%" y2="0%">
      <stop offset="0%" stop-color="#22C55E"/>
      <stop offset="50%" stop-color="#E9AB34"/>
      <stop offset="100%" stop-color="#EF4444"/>
    </linearGradient>
  </defs>

  <!-- Background pill -->
  <rect width="360" height="72" rx="14" fill="#1A1A1A"/>

  <!-- Mark: Context wave in left area -->
  <g transform="translate(8, 4)">
    <!-- Context wave -->
    <path d="M 10 48 C 16 48, 18 42, 22 40 C 26 38, 28 36, 32 32 C 36 28, 38 22, 42 18 C 46 14, 50 16, 54 14"
          stroke="url(#full-wave-grad)" stroke-width="3.5" fill="none" stroke-linecap="round" stroke-linejoin="round"/>

    <!-- Echo line -->
    <path d="M 10 52 C 16 52, 18 46, 22 44 C 26 42, 28 40, 32 36 C 36 32, 38 26, 42 22 C 46 18, 50 20, 54 18"
          stroke="url(#full-wave-grad)" stroke-width="1.5" fill="none" stroke-linecap="round" opacity="0.3"/>

    <!-- Cursor dot -->
    <circle cx="42" cy="18" r="3.5" fill="#E9AB34"/>
    <circle cx="42" cy="18" r="6" fill="#E9AB34" opacity="0.15"/>

    <!-- Baseline -->
    <line x1="10" y1="54" x2="54" y2="54" stroke="#8B7D6B" stroke-width="1" stroke-linecap="round" opacity="0.4"/>
  </g>

  <!-- Divider -->
  <line x1="76" y1="16" x2="76" y2="56" stroke="#8B7D6B" stroke-width="1" opacity="0.25"/>

  <!-- Wordmark -->
  <text x="90" y="35" font-family="'SF Mono', 'JetBrains Mono', 'Fira Code', 'Cascadia Code', monospace" font-size="22" font-weight="700" fill="#FFFFFF" letter-spacing="-0.3">cc-context</text>
  <text x="90" y="55" font-family="'SF Mono', 'JetBrains Mono', 'Fira Code', 'Cascadia Code', monospace" font-size="15" font-weight="500" fill="#E9AB34" letter-spacing="3">stats</text>

  <!-- Right accent bar -->
  <rect x="348" y="20" width="2" height="32" rx="1" fill="#E9AB34" opacity="0.5"/>
</svg>
