<svg xmlns="http://www.w3.org/2000/svg" viewBox="0 0 64 64" width="64" height="64">
  <defs>
    <linearGradient id="wave-grad" x1="0%" y1="0%" x2="100%" y2="0%">
      <stop offset="0%" stop-color="#22C55E"/>
      <stop offset="50%" stop-color="#E9AB34"/>
      <stop offset="100%" stop-color="#EF4444"/>
    </linearGradient>
  </defs>

  <!-- Background -->
  <rect width="64" height="64" rx="14" fill="#1A1A1A"/>

  <!-- Context wave: a flowing curve rising from left (low usage) to right (high usage) -->
  <!-- This represents the context growth graph - the core concept of the tool -->
  <path d="M 10 48 C 16 48, 18 42, 22 40 C 26 38, 28 36, 32 32 C 36 28, 38 22, 42 18 C 46 14, 50 16, 54 14"
        stroke="url(#wave-grad)" stroke-width="3.5" fill="none" stroke-linecap="round" stroke-linejoin="round"/>

  <!-- Secondary pulse line (echo effect for depth) -->
  <path d="M 10 52 C 16 52, 18 46, 22 44 C 26 42, 28 40, 32 36 C 36 32, 38 26, 42 22 C 46 18, 50 20, 54 18"
        stroke="url(#wave-grad)" stroke-width="1.5" fill="none" stroke-linecap="round" opacity="0.3"/>

  <!-- Cursor dot at the "current position" on the wave -->
  <circle cx="42" cy="18" r="3.5" fill="#E9AB34"/>
  <circle cx="42" cy="18" r="6" fill="#E9AB34" opacity="0.15"/>

  <!-- Baseline -->
  <line x1="10" y1="54" x2="54" y2="54" stroke="#8B7D6B" stroke-width="1" stroke-linecap="round" opacity="0.4"/>
</svg>
